<?xml version="1.0" encoding="UTF-8" standalone="no"?>
<!-- Generator: Adobe Illustrator 16.0.0, SVG Export Plug-In . SVG Version: 6.00 Build 0)  -->

<svg
   xmlns:dc="http://purl.org/dc/elements/1.1/"
   xmlns:cc="http://creativecommons.org/ns#"
   xmlns:rdf="http://www.w3.org/1999/02/22-rdf-syntax-ns#"
   xmlns:svg="http://www.w3.org/2000/svg"
   xmlns="http://www.w3.org/2000/svg"
   xmlns:sodipodi="http://sodipodi.sourceforge.net/DTD/sodipodi-0.dtd"
   xmlns:inkscape="http://www.inkscape.org/namespaces/inkscape"
   version="1.1"
   id="Layer_1"
   x="0px"
   y="0px"
   width="128.042px"
   height="114.043px"
   viewBox="0 0 128.042 114.043"
   enable-background="new 0 0 128.042 114.043"
   xml:space="preserve"
   sodipodi:docname="check.svg"
   inkscape:version="0.92.1 r15371"><metadata
     id="metadata13"><rdf:RDF><cc:Work
         rdf:about=""><dc:format>image/svg+xml</dc:format><dc:type
           rdf:resource="http://purl.org/dc/dcmitype/StillImage" /></cc:Work></rdf:RDF></metadata><defs
     id="defs11" /><sodipodi:namedview
     pagecolor="#ffffff"
     bordercolor="#666666"
     borderopacity="1"
     objecttolerance="10"
     gridtolerance="10"
     guidetolerance="10"
     inkscape:pageopacity="0"
     inkscape:pageshadow="2"
     inkscape:window-width="1366"
     inkscape:window-height="705"
     id="namedview9"
     showgrid="false"
     inkscape:zoom="2.0693949"
     inkscape:cx="64.021004"
     inkscape:cy="57.0215"
     inkscape:window-x="-8"
     inkscape:window-y="-8"
     inkscape:window-maximized="1"
     inkscape:current-layer="Layer_1" /><g
     id="g6"><path
       fill-rule="evenodd"
       clip-rule="evenodd"
       fill="#969696"
       d="M51.993,114.043c-1.666,0-3.333,0-4.999,0   C31.33,96.046,15.665,78.048,0,60.05c0-1.666,0-3.333,0-4.999c5.408-5.388,10.779-10.815,16.238-16.152   c4.448-4.35,7.695-4.26,11.768,0.401c6.347,7.264,12.654,14.565,18.827,21.977c1.9,2.282,2.987,2.783,5.171,0.133   c16.909-20.522,33.97-40.917,50.983-61.352c1.666,0,3.333,0,4.999,0c7.063,6.269,13.781,12.883,19.998,19.998   c0,1.666,0,3.333,0,4.999c-9.925,11.595-19.861,23.18-29.771,34.789C82.797,77.9,67.399,95.976,51.993,114.043z"
       id="path2" /><path
       fill-rule="evenodd"
       clip-rule="evenodd"
       fill="#FDFDFD"
       d="M127.984,20.055c-6.217-7.115-12.936-13.729-19.998-19.998   c5.999,0,12,0.088,17.996-0.055c1.74-0.042,2.098,0.315,2.057,2.056C127.896,8.055,127.984,14.056,127.984,20.055z"
       id="path4" /></g><path
     style="fill:#e45028;stroke-width:0.48323303;fill-opacity:1"
     d="M 23.738592,87.02918 0.57250455,60.401952 0.43155746,57.664451 0.29061031,54.926955 9.1297524,46.182681 C 19.933614,35.494774 21.319631,34.661373 24.780699,36.771898 c 1.546253,0.942889 6.949029,6.936385 16.816299,18.654933 6.342991,7.533047 7.061481,8.190486 8.464447,7.745201 0.762174,-0.241907 29.40058,-34.273622 50.108065,-59.544639 l 2.8484,-3.47613284 2.56318,-0.0273068 2.56316,-0.02730677 9.90426,9.90425341 9.90425,9.904254 -0.14498,2.609294 -0.14498,2.609295 -24.88651,29.127981 C 89.088718,70.272112 72.072604,90.191964 64.962709,98.51806 l -12.927088,15.13835 h -2.56547 -2.565473 z"
     id="path15"
     inkscape:connector-curvature="0" /></svg>